<svg id="图层_1" data-name="图层 1" xmlns="http://www.w3.org/2000/svg" xmlns:xlink="http://www.w3.org/1999/xlink" viewBox="0 0 2372.18 328.16"><defs><style>.cls-1{fill:url(#未命名的渐变_16);}.cls-2{fill:#5fff82;}</style><linearGradient id="未命名的渐变_16" x1="76.26" y1="27.77" x2="259.08" y2="311.53" gradientUnits="userSpaceOnUse"><stop offset="0" stop-color="#5fff82"/><stop offset="0.33" stop-color="#5efe84"/><stop offset="0.51" stop-color="#5afb8c"/><stop offset="0.66" stop-color="#54f79a"/><stop offset="0.79" stop-color="#4cf0ae"/><stop offset="0.91" stop-color="#41e7c7"/><stop offset="0.98" stop-color="#38e0dc"/></linearGradient></defs><path class="cls-1" d="M164.08,0A164.08,164.08,0,1,0,328.16,164.08,164.08,164.08,0,0,0,164.08,0ZM96.55,268.61a26.12,26.12,0,0,1-16.47-46.39V76A16.47,16.47,0,0,1,96.55,59.55h0A16.47,16.47,0,0,1,113,76v146.2a26.12,26.12,0,0,1-16.47,46.39Zm106.51-16.47a16.48,16.48,0,0,1-16.47,16.47h0a16.47,16.47,0,0,1-16.47-16.47V204.78a25,25,0,0,0-7.34-17.71L140,164.28a50.83,50.83,0,0,1-14.89-35.95V76A16.47,16.47,0,0,1,158,76v47.13a25,25,0,0,0,7.34,17.71l22.79,22.79a50.88,50.88,0,0,1,14.89,35.95Zm45-146.21V252.14a16.48,16.48,0,0,1-16.47,16.47h0a16.47,16.47,0,0,1-16.47-16.47V105.93a26.12,26.12,0,1,1,32.94,0Z"/><path class="cls-2" d="M536.19,74.48H426.39a20.51,20.51,0,1,0,0,41h31.2V230a23.7,23.7,0,0,0,23.7,23.71h0A23.71,23.71,0,0,0,505,230V115.49h31.19a20.51,20.51,0,1,0,0-41Z"/><path class="cls-2" d="M1952.25,74.48h-52.12a24.82,24.82,0,0,0-24.82,24.81V228.86a24.82,24.82,0,0,0,24.82,24.82h52.12a73.88,73.88,0,0,0,73.88-73.88V148.36A73.88,73.88,0,0,0,1952.25,74.48Zm26.47,108.69a29.5,29.5,0,0,1-29.5,29.5h-18.5a8,8,0,0,1-8-8v-81.2a8,8,0,0,1,8-8h18.5a29.5,29.5,0,0,1,29.5,29.5Z"/><path class="cls-2" d="M2276.68,115.49h75A20.51,20.51,0,0,0,2372.18,95h0a20.5,20.5,0,0,0-20.51-20.5h-90.3a40,40,0,0,0-40,40v99.18a40,40,0,0,0,40,40h90.3a20.51,20.51,0,0,0,20.51-20.51h0a20.5,20.5,0,0,0-20.51-20.5h-75a7.91,7.91,0,0,1-7.91-7.9V192.49a7.9,7.9,0,0,1,7.91-7.9h75a20.51,20.51,0,0,0,20.51-20.51h0a20.51,20.51,0,0,0-20.51-20.51h-75a7.91,7.91,0,0,1-7.91-7.9V123.39A7.91,7.91,0,0,1,2276.68,115.49Z"/><path class="cls-2" d="M2178.65,74.48H2073.08a24.73,24.73,0,0,0-24.74,24.74V228.94a24.74,24.74,0,0,0,24.74,24.74h101.34a24.74,24.74,0,0,0,24.73-24.74V168.31a24.74,24.74,0,0,0-24.73-24.74h-37.74a20.51,20.51,0,0,0-20.51,20.51h0a20.51,20.51,0,0,0,20.51,20.51h8.75a6.31,6.31,0,0,1,6.31,6.31v13.82a8,8,0,0,1-7.95,7.95H2103.7a8,8,0,0,1-7.95-7.95V123.44a8,8,0,0,1,7.95-8h75A20.5,20.5,0,0,0,2199.15,95h0A20.5,20.5,0,0,0,2178.65,74.48Z"/><path class="cls-2" d="M862.93,143.57H815.6a14,14,0,0,1-14-14h0a14,14,0,0,1,14-14H880A20.51,20.51,0,0,0,900.53,95h0A20.51,20.51,0,0,0,880,74.48H794a39.81,39.81,0,0,0-39.81,39.81v30.48A39.81,39.81,0,0,0,794,184.59h47.33a14,14,0,0,1,14,14h0a14,14,0,0,1-14,14H772.43a20.5,20.5,0,0,0-20.5,20.5h0a20.5,20.5,0,0,0,20.5,20.51h90.5a39.82,39.82,0,0,0,39.82-39.82V183.39A39.82,39.82,0,0,0,862.93,143.57Z"/><path class="cls-2" d="M706,74.48h0a23.7,23.7,0,0,0-23.71,23.7V198.63a14,14,0,0,1-14,14H640.36a14,14,0,0,1-14-14V98.18a23.7,23.7,0,0,0-23.71-23.7h0a23.7,23.7,0,0,0-23.7,23.7V213.86a39.81,39.81,0,0,0,39.81,39.82h71.19a39.81,39.81,0,0,0,39.81-39.82V98.18A23.7,23.7,0,0,0,706,74.48Z"/><path class="cls-2" d="M948.66,74.48h0A23.7,23.7,0,0,0,925,98.18V230a23.7,23.7,0,0,0,23.71,23.71h0A23.7,23.7,0,0,0,972.36,230V98.18A23.7,23.7,0,0,0,948.66,74.48Z"/><path class="cls-2" d="M1829.4,74.48a23.7,23.7,0,0,0-23.7,23.7V230a23.71,23.71,0,1,0,47.41,0V98.18A23.7,23.7,0,0,0,1829.4,74.48Z"/><path class="cls-2" d="M1158,74.48h-36.92a24.88,24.88,0,0,0-24.88,24.88,24.88,24.88,0,0,0-24.88-24.88h-36.92a39.81,39.81,0,0,0-39.82,39.81V230a23.71,23.71,0,1,0,47.41,0V129.53a14,14,0,0,1,14-14h2.42a14,14,0,0,1,14,14V230a23.71,23.71,0,0,0,23.71,23.71h0A23.71,23.71,0,0,0,1119.9,230V129.53a14,14,0,0,1,14-14h2.41a14,14,0,0,1,14.05,14V230a23.71,23.71,0,1,0,47.41,0V114.29A39.81,39.81,0,0,0,1158,74.48Z"/><path class="cls-2" d="M1331,74.48h-71.19A39.81,39.81,0,0,0,1220,114.29V230a23.71,23.71,0,0,0,23.71,23.71h0A23.71,23.71,0,0,0,1267.43,230v-6.38a14.05,14.05,0,0,1,14-14.06h27.89a14.05,14.05,0,0,1,14.05,14.06V230a23.71,23.71,0,1,0,47.41,0V114.29A39.81,39.81,0,0,0,1331,74.48Zm-7.6,80a14,14,0,0,1-14,14h-27.91a14,14,0,0,1-14-14V129.53a14,14,0,0,1,14-14h27.91a14,14,0,0,1,14,14Z"/><path class="cls-2" d="M1570.5,74.48h-86.12a24.73,24.73,0,0,0-24.73,24.73V229a24.73,24.73,0,0,0,24.73,24.73h86.12a40,40,0,0,0,40-40V183.28a19.2,19.2,0,0,0-19.2-19.2,19.2,19.2,0,0,0,19.2-19.2V114.44A40,40,0,0,0,1570.5,74.48Zm-7.45,130.42a7.77,7.77,0,0,1-7.77,7.77h-40.44a7.77,7.77,0,0,1-7.78-7.77V192.36a7.77,7.77,0,0,1,7.78-7.77h40.44a7.76,7.76,0,0,1,7.77,7.77Zm0-69.1a7.77,7.77,0,0,1-7.77,7.77h-40.44a7.77,7.77,0,0,1-7.78-7.77V123.26a7.77,7.77,0,0,1,7.78-7.77h40.44a7.77,7.77,0,0,1,7.77,7.77Z"/><path class="cls-2" d="M1743.52,74.48h-70.88a40,40,0,0,0-40,40V230a23.71,23.71,0,1,0,47.42,0V192.44a7.85,7.85,0,0,1,7.86-7.85h40.27a7.85,7.85,0,0,1,7.86,7.85V230a23.7,23.7,0,0,0,23.7,23.71h0A23.7,23.7,0,0,0,1783.49,230v-46.8a19.09,19.09,0,0,0-19.09-19.09h-.07a19.16,19.16,0,0,0,19.16-19.16V114.44A40,40,0,0,0,1743.52,74.48Zm-63.43,48.76a7.75,7.75,0,0,1,7.75-7.75h40.49a7.75,7.75,0,0,1,7.75,7.75v12.58a7.75,7.75,0,0,1-7.75,7.75h-40.49a7.75,7.75,0,0,1-7.75-7.75Z"/></svg>