<svg id="图层_1" data-name="图层 1" xmlns="http://www.w3.org/2000/svg" xmlns:xlink="http://www.w3.org/1999/xlink" viewBox="0 0 328.16 328.16"><defs><style>.cls-1{fill:url(#未命名的渐变_16);}</style><linearGradient id="未命名的渐变_16" x1="76.26" y1="27.77" x2="259.08" y2="311.53" gradientUnits="userSpaceOnUse"><stop offset="0" stop-color="#5fff82"/><stop offset="0.33" stop-color="#5efe84"/><stop offset="0.51" stop-color="#5afb8c"/><stop offset="0.66" stop-color="#54f79a"/><stop offset="0.79" stop-color="#4cf0ae"/><stop offset="0.91" stop-color="#41e7c7"/><stop offset="0.98" stop-color="#38e0dc"/></linearGradient></defs><path class="cls-1" d="M164.08,0A164.08,164.08,0,1,0,328.16,164.08,164.08,164.08,0,0,0,164.08,0ZM96.55,268.61a26.12,26.12,0,0,1-16.47-46.39V76A16.47,16.47,0,0,1,96.55,59.55h0A16.47,16.47,0,0,1,113,76v146.2a26.12,26.12,0,0,1-16.47,46.39Zm106.51-16.47a16.48,16.48,0,0,1-16.47,16.47h0a16.47,16.47,0,0,1-16.47-16.47V204.78a25,25,0,0,0-7.34-17.71L140,164.28a50.83,50.83,0,0,1-14.89-35.95V76A16.47,16.47,0,0,1,158,76v47.13a25,25,0,0,0,7.34,17.71l22.79,22.79a50.88,50.88,0,0,1,14.89,35.95Zm45-146.21V252.14a16.48,16.48,0,0,1-16.47,16.47h0a16.47,16.47,0,0,1-16.47-16.47V105.93a26.12,26.12,0,1,1,32.94,0Z"/></svg>